<mxfile host="Electron" agent="Mozilla/5.0 (X11; Linux x86_64) AppleWebKit/537.36 (KHTML, like Gecko) draw.io/26.0.16 Chrome/132.0.6834.196 Electron/34.2.0 Safari/537.36" version="26.0.16">
  <diagram name="Page-1" id="UPBPyNGsvxRKajCXfdjn">
    <mxGraphModel dx="1395" dy="690" grid="1" gridSize="10" guides="1" tooltips="1" connect="1" arrows="1" fold="1" page="1" pageScale="1" pageWidth="850" pageHeight="1100" math="0" shadow="0">
      <root>
        <mxCell id="0" />
        <mxCell id="1" parent="0" />
        <mxCell id="Z5fLEBwizK1Z_1XIKsQG-4" value="" style="edgeStyle=orthogonalEdgeStyle;rounded=0;orthogonalLoop=1;jettySize=auto;html=1;" edge="1" parent="1" source="Z5fLEBwizK1Z_1XIKsQG-2" target="Z5fLEBwizK1Z_1XIKsQG-3">
          <mxGeometry relative="1" as="geometry" />
        </mxCell>
        <mxCell id="Z5fLEBwizK1Z_1XIKsQG-2" value="&lt;h4 style=&quot;box-sizing: border-box; border-width: 0px; border-style: solid; border-color: var(--color-ui-border); --tw-border-spacing-x: 0; --tw-border-spacing-y: 0; --tw-translate-x: 0; --tw-translate-y: 0; --tw-rotate: 0; --tw-skew-x: 0; --tw-skew-y: 0; --tw-scale-x: 1; --tw-scale-y: 1; --tw-pan-x: ; --tw-pan-y: ; --tw-pinch-zoom: ; --tw-scroll-snap-strictness: proximity; --tw-ordinal: ; --tw-slashed-zero: ; --tw-numeric-figure: ; --tw-numeric-spacing: ; --tw-numeric-fraction: ; --tw-ring-inset: ; --tw-ring-offset-width: 0px; --tw-ring-offset-color: #fff; --tw-ring-color: rgb(59 130 246 / .5); --tw-ring-offset-shadow: 0 0 #0000; --tw-ring-shadow: 0 0 #0000; --tw-shadow: 0 0 #0000; --tw-shadow-colored: 0 0 #0000; --tw-blur: ; --tw-brightness: ; --tw-contrast: ; --tw-grayscale: ; --tw-hue-rotate: ; --tw-invert: ; --tw-saturate: ; --tw-sepia: ; --tw-drop-shadow: ; --tw-backdrop-blur: ; --tw-backdrop-brightness: ; --tw-backdrop-contrast: ; --tw-backdrop-grayscale: ; --tw-backdrop-hue-rotate: ; --tw-backdrop-invert: ; --tw-backdrop-opacity: ; --tw-backdrop-saturate: ; --tw-backdrop-sepia: ; font-size: 16px; margin-top: 14px; margin-right: 0px; font-family: Lato, ui-sans-serif, system-ui, -apple-system, BlinkMacSystemFont, &amp;quot;Segoe UI&amp;quot;, Roboto, &amp;quot;Helvetica Neue&amp;quot;, Arial, &amp;quot;Noto Sans&amp;quot;, sans-serif, &amp;quot;Apple Color Emoji&amp;quot;, &amp;quot;Segoe UI Emoji&amp;quot;, &amp;quot;Segoe UI Symbol&amp;quot;, &amp;quot;Noto Color Emoji&amp;quot;; text-rendering: optimizelegibility; line-height: 1.4; color: rgb(239, 239, 239); text-align: start; background-color: rgb(22, 23, 27); margin-bottom: 0.75rem !important; margin-left: 0.5rem !important;&quot; class=&quot;ml-2 mb-3&quot;&gt;Square(n) Sum&lt;/h4&gt;" style="rounded=1;whiteSpace=wrap;html=1;arcSize=50;" vertex="1" parent="1">
          <mxGeometry x="343" y="50" width="165" height="60" as="geometry" />
        </mxCell>
        <mxCell id="Z5fLEBwizK1Z_1XIKsQG-6" value="" style="edgeStyle=orthogonalEdgeStyle;rounded=0;orthogonalLoop=1;jettySize=auto;html=1;" edge="1" parent="1" source="Z5fLEBwizK1Z_1XIKsQG-3" target="Z5fLEBwizK1Z_1XIKsQG-5">
          <mxGeometry relative="1" as="geometry" />
        </mxCell>
        <mxCell id="Z5fLEBwizK1Z_1XIKsQG-3" value="arr, size" style="shape=parallelogram;perimeter=parallelogramPerimeter;whiteSpace=wrap;html=1;fixedSize=1;" vertex="1" parent="1">
          <mxGeometry x="365" y="170" width="120" height="60" as="geometry" />
        </mxCell>
        <mxCell id="Z5fLEBwizK1Z_1XIKsQG-9" value="" style="edgeStyle=orthogonalEdgeStyle;rounded=0;orthogonalLoop=1;jettySize=auto;html=1;" edge="1" parent="1" source="Z5fLEBwizK1Z_1XIKsQG-5" target="Z5fLEBwizK1Z_1XIKsQG-7">
          <mxGeometry relative="1" as="geometry" />
        </mxCell>
        <mxCell id="Z5fLEBwizK1Z_1XIKsQG-5" value="i = 0&amp;nbsp;&lt;br&gt;sum = 0&amp;nbsp;" style="rounded=0;whiteSpace=wrap;html=1;" vertex="1" parent="1">
          <mxGeometry x="365" y="280" width="120" height="60" as="geometry" />
        </mxCell>
        <mxCell id="Z5fLEBwizK1Z_1XIKsQG-13" value="" style="edgeStyle=orthogonalEdgeStyle;rounded=0;orthogonalLoop=1;jettySize=auto;html=1;" edge="1" parent="1" source="Z5fLEBwizK1Z_1XIKsQG-7" target="Z5fLEBwizK1Z_1XIKsQG-12">
          <mxGeometry relative="1" as="geometry" />
        </mxCell>
        <mxCell id="Z5fLEBwizK1Z_1XIKsQG-18" style="edgeStyle=orthogonalEdgeStyle;rounded=0;orthogonalLoop=1;jettySize=auto;html=1;" edge="1" parent="1" source="Z5fLEBwizK1Z_1XIKsQG-7" target="Z5fLEBwizK1Z_1XIKsQG-17">
          <mxGeometry relative="1" as="geometry" />
        </mxCell>
        <mxCell id="Z5fLEBwizK1Z_1XIKsQG-7" value="repeat count times" style="shape=hexagon;perimeter=hexagonPerimeter2;whiteSpace=wrap;html=1;fixedSize=1;size=20;" vertex="1" parent="1">
          <mxGeometry x="330.5" y="390" width="190" height="80" as="geometry" />
        </mxCell>
        <mxCell id="Z5fLEBwizK1Z_1XIKsQG-15" value="" style="edgeStyle=orthogonalEdgeStyle;rounded=0;orthogonalLoop=1;jettySize=auto;html=1;" edge="1" parent="1" source="Z5fLEBwizK1Z_1XIKsQG-12" target="Z5fLEBwizK1Z_1XIKsQG-14">
          <mxGeometry relative="1" as="geometry" />
        </mxCell>
        <mxCell id="Z5fLEBwizK1Z_1XIKsQG-12" value="arr[i] = arr[i] * arr[i]&amp;nbsp;" style="rounded=0;whiteSpace=wrap;html=1;" vertex="1" parent="1">
          <mxGeometry x="365" y="540" width="120" height="60" as="geometry" />
        </mxCell>
        <mxCell id="Z5fLEBwizK1Z_1XIKsQG-22" value="" style="edgeStyle=orthogonalEdgeStyle;rounded=0;orthogonalLoop=1;jettySize=auto;html=1;" edge="1" parent="1" source="Z5fLEBwizK1Z_1XIKsQG-14" target="Z5fLEBwizK1Z_1XIKsQG-21">
          <mxGeometry relative="1" as="geometry" />
        </mxCell>
        <mxCell id="Z5fLEBwizK1Z_1XIKsQG-14" value="sum = sum + arr[i]" style="rounded=0;whiteSpace=wrap;html=1;" vertex="1" parent="1">
          <mxGeometry x="365" y="660" width="120" height="60" as="geometry" />
        </mxCell>
        <mxCell id="Z5fLEBwizK1Z_1XIKsQG-20" value="" style="edgeStyle=orthogonalEdgeStyle;rounded=0;orthogonalLoop=1;jettySize=auto;html=1;" edge="1" parent="1" source="Z5fLEBwizK1Z_1XIKsQG-17" target="Z5fLEBwizK1Z_1XIKsQG-19">
          <mxGeometry relative="1" as="geometry" />
        </mxCell>
        <mxCell id="Z5fLEBwizK1Z_1XIKsQG-17" value="sum&amp;nbsp;" style="shape=parallelogram;perimeter=parallelogramPerimeter;whiteSpace=wrap;html=1;fixedSize=1;" vertex="1" parent="1">
          <mxGeometry x="610" y="520" width="120" height="60" as="geometry" />
        </mxCell>
        <mxCell id="Z5fLEBwizK1Z_1XIKsQG-19" value="END" style="rounded=1;whiteSpace=wrap;html=1;arcSize=50;" vertex="1" parent="1">
          <mxGeometry x="610" y="620" width="120" height="60" as="geometry" />
        </mxCell>
        <mxCell id="Z5fLEBwizK1Z_1XIKsQG-23" style="edgeStyle=orthogonalEdgeStyle;rounded=0;orthogonalLoop=1;jettySize=auto;html=1;entryX=0;entryY=0.5;entryDx=0;entryDy=0;" edge="1" parent="1" source="Z5fLEBwizK1Z_1XIKsQG-21" target="Z5fLEBwizK1Z_1XIKsQG-7">
          <mxGeometry relative="1" as="geometry">
            <Array as="points">
              <mxPoint x="425" y="880" />
              <mxPoint x="230" y="880" />
              <mxPoint x="230" y="430" />
            </Array>
          </mxGeometry>
        </mxCell>
        <mxCell id="Z5fLEBwizK1Z_1XIKsQG-21" value="i = i + 1" style="rounded=0;whiteSpace=wrap;html=1;" vertex="1" parent="1">
          <mxGeometry x="365" y="780" width="120" height="60" as="geometry" />
        </mxCell>
      </root>
    </mxGraphModel>
  </diagram>
</mxfile>
